<svg xmlns="http://www.w3.org/2000/svg" width="40" height="40" viewBox="0 0 40 40">
  <g id="Group_144" data-name="Group 144" transform="translate(-848 -335)">
    <rect id="Rectangle_39" data-name="Rectangle 39" width="40" height="40" transform="translate(848 335)" fill="#fff"/>
    <g id="Group_143" data-name="Group 143" transform="translate(288.58 -45.473)">
      <path id="Icon_ionic-md-female" data-name="Icon ionic-md-female" d="M31.038,12.705c0-5.772-5.188-10.455-11.582-10.455S7.875,6.933,7.875,12.705c0,5.184,4.174,9.482,9.651,10.31v3.63H11.736V30.13h5.791v4.647h3.861V30.13h5.791V26.645H21.387v-3.63C26.864,22.187,31.038,17.889,31.038,12.705Zm-19.3,0c0-3.841,3.466-6.97,7.721-6.97s7.721,3.129,7.721,6.97-3.466,6.97-7.721,6.97S11.736,16.546,11.736,12.705Z" transform="translate(559.963 382.223)"/>
    </g>
  </g>
</svg>
